<svg width="40" height="56" viewBox="0 0 40 56" xmlns="http://www.w3.org/2000/svg">
  <!-- Main pin shape -->
  <path d="M20 0C11.716 0 5 6.716 5 15c0 10 15 26 15 26s15-16 15-26c0-8.284-6.716-15-15-15z" 
        fill="#1E40AF" stroke="#1E3A8A" stroke-width="1"/>
  
  <!-- White circle background for icon -->
  <circle cx="20" cy="15" r="8" fill="white"/>
  
  <!-- Medical cross or Y's Reading icon in the center -->
  <g transform="translate(20, 15)">
    <!-- Outer hexagon shape -->
    <path d="M0,-5 L4.33,-2.5 L4.33,2.5 L0,5 L-4.33,2.5 L-4.33,-2.5 Z" 
          fill="none" stroke="#1E40AF" stroke-width="1.2"/>
    
    <!-- Inner Y shape -->
    <path d="M-2,-3 L0,-1 L2,-3 M0,-1 L0,3" 
          stroke="#1E40AF" stroke-width="1.5" stroke-linecap="round" fill="none"/>
    
    <!-- Small circles at corners -->
    <circle cx="-3" cy="-1.5" r="0.8" fill="#1E40AF"/>
    <circle cx="3" cy="-1.5" r="0.8" fill="#1E40AF"/>
    <circle cx="0" cy="3.5" r="0.8" fill="#1E40AF"/>
  </g>
  
  <!-- Shadow effect -->
  <ellipse cx="20" cy="54" rx="8" ry="2" fill="rgba(0,0,0,0.2)"/>
</svg>
